<?xml version="1.0" encoding="UTF-8" standalone="no"?>
<!-- Created with Inkscape (http://www.inkscape.org/) -->

<svg
   version="1.1"
   id="svg2"
   width="313.40472"
   height="308.49951"
   viewBox="0 0 313.40472 308.49951"
   xmlns="http://www.w3.org/2000/svg"
   xmlns:svg="http://www.w3.org/2000/svg">
  <defs
     id="defs6" />
  <g
     id="g8"
     transform="translate(-575.0008,-146.11015)">
    <g
       id="g2720">
      <path
         style="fill:#5b8a94;fill-opacity:1"
         d="m 700.16774,448.53039 c -9.1369,-2.0754 -20.58086,-8.02682 -24.70944,-12.85014 -6.04184,-7.05853 -4.16611,-14.28246 4.88623,-18.81817 5.37129,-2.69131 9.65547,-6.73564 9.65547,-9.11491 0,-7.30376 -8.90307,-9.80579 -40,-11.24117 -23.62189,-1.09036 -39.75239,-4.83317 -43.97724,-10.20419 -2.63716,-3.35261 -2.6481,-9.2371 -0.0234,-12.5739 1.09966,-1.39799 6.54029,-4.8743 12.09029,-7.72514 C 629.81339,359.98071 632,358.09643 632,354.01578 c 0,-5.68914 -4.15119,-8.68979 -17.5,-12.64972 -11.29536,-3.35078 -26.06514,-9.6184 -29.57514,-12.55033 -5.60414,-4.68119 -6.02125,-10.18678 -1.04045,-13.73342 6.70856,-4.77692 12.4854,-5.32319 61.46434,-5.81223 32.8358,-0.32785 47.16889,-0.12857 50.5,0.70213 2.62817,0.65541 7.04349,3.02164 10.15125,5.4402 3.025,2.35417 11.125,8.24915 18,13.09996 28.38716,20.02922 35.58963,27.09879 42.55844,41.7731 4.33955,9.13786 6.82495,21.76826 5.93256,30.14826 -0.86754,8.14661 -4.6452,19.57311 -8.41126,25.44201 -6.3838,9.94829 -15.47556,16.87255 -28.03164,21.34882 -7.403,2.63919 -26.88823,3.34833 -35.88036,1.30583 z M 579.97019,292.94429 c -1.93856,-3.62222 1.11249,-22.71547 6.22319,-38.94429 12.16326,-38.62394 41.86159,-72.90899 78.45492,-90.57177 13.05576,-6.30172 36.35514,-13.77115 36.34991,-11.65323 -9.8e-4,0.39875 -2.01948,1.99971 -4.48556,3.55769 -28.89739,18.25635 -43.11514,52.41097 -37.08525,89.0881 1.07749,6.55385 1.2947,10.25711 0.64002,10.91179 -0.96345,0.96345 -3.69064,-0.22873 -14.70183,-6.4269 l -4.13442,-2.32725 -5.84759,4.46079 C 632.16741,253.49265 624.8029,260.225 619.018,266 c -5.7849,5.775 -13.443,12.63461 -17.018,15.24358 -3.575,2.60897 -8.87936,6.77147 -11.78746,9.25 -5.79177,4.93623 -8.55792,5.5981 -10.24235,2.45071 z"
         id="path1310" />
      <path
         style="fill:#d4af78;fill-opacity:1"
         d="m 775.5,446.5045 c 1.65,-1.45578 5.81818,-5.12291 9.26263,-8.14916 27.07332,-23.78633 33.06313,-70.55006 13.01177,-101.58554 -9.2178,-14.26731 -17.29372,-21.59806 -43.63431,-39.60815 -25.95939,-17.74945 -29.01504,-21.6491 -23.81321,-30.39062 1.39786,-2.34907 4.86694,-6.24793 7.70907,-8.66414 6.82271,-5.80026 8.95568,-9.46356 8.96031,-15.38901 0.005,-5.78702 -1.53351,-9.67362 -7.03262,-17.77143 -2.39828,-3.53162 -4.40228,-7.79784 -4.69776,-10.00086 -0.58923,-4.39304 3.24173,-21.29205 5.19419,-22.91245 0.93871,-0.77906 3.07352,1.03714 8.4781,7.21281 8.09367,9.24839 11.32853,11.7411 15.24673,11.74879 5.59474,0.011 7.3356,1.72908 18.34539,18.10565 17.60253,26.183 21.26255,30.89961 23.97759,30.89961 2.27618,0 7.12931,-3.66662 15.10293,-11.4105 3.83872,-3.72811 6.90871,-4.48034 9.54792,-2.3395 0.84754,0.6875 5.63272,6.65 10.63373,13.25 5.00101,6.6 11.30474,13.88248 14.00829,16.18329 4.86983,4.14439 23.55403,28.04116 26.44032,33.81671 3.86701,7.73802 2.54054,21.56965 -3.884,40.5 -11.84344,34.89756 -36.37122,65.06686 -68.3409,84.0597 -8.806,5.23155 -28.87781,13.90702 -33.70834,14.56948 L 772.5,449.15138 Z M 879,278.29211 c -1.925,-1.47714 -9.8,-8.57079 -17.5,-15.76365 -18.90611,-17.66093 -27.5906,-25.49929 -30.09696,-27.16462 -1.82277,-1.21113 -2.93419,-1.13842 -8.5,0.55602 -13.9349,4.24232 -12.88987,4.49788 -22.71863,-5.55585 C 795.40798,225.47826 787.45,217.12183 782.5,211.79416 c -8.4387,-9.08253 -9.30213,-9.72915 -13.84436,-10.3681 -5.34635,-0.75206 -5.80677,-1.13167 -19.06787,-15.72121 C 745.23604,180.91718 741.13252,177 740.46884,177 c -0.66368,0 -10.13909,9.3375 -21.05646,20.75 -10.91737,11.4125 -20.46972,21.13413 -21.22745,21.60362 -2.80474,1.73785 -3.68663,-1.23758 -3.60308,-12.15655 0.12642,-16.52251 5.07301,-28.22618 16.60173,-39.27981 5.62512,-5.39331 18.52108,-12.20861 27.27652,-14.41518 13.05379,-3.28985 35.71451,-1.06458 51.05288,5.01337 42.14291,16.69946 73.11911,49.26127 88.45663,92.98455 4.81448,13.72482 7.64351,29.52385 5.28039,29.48891 -0.4125,-0.006 -2.325,-1.21966 -4.25,-2.6968 z"
         id="path1312" />
    </g>
  </g>
</svg>
